<svg xmlns="http://www.w3.org/2000/svg" viewBox="0 0 440 96" role="img" aria-labelledby="title desc">
  <title id="title">X-Laboratory</title>
  <desc id="desc">X-Laboratory logo with a connected geometric X mark and the subtitle AI, Smart Grids, Data-Driven Systems.</desc>
  <g transform="translate(8 16)">
    <rect width="64" height="64" rx="14" fill="#14272b"/>
    <g fill="#68c8b7">
      <path d="M15 15h10l7 10 7-10h10L38 32l11 17H39l-7-10-7 10H15l11-17z"/>
      <rect x="12" y="12" width="6" height="6" rx="1.5"/>
      <rect x="46" y="12" width="6" height="6" rx="1.5"/>
      <rect x="12" y="46" width="6" height="6" rx="1.5"/>
      <rect x="46" y="46" width="6" height="6" rx="1.5"/>
    </g>
    <path d="m32 25 7 7-7 7-7-7z" fill="#f2c66d"/>
    <circle cx="32" cy="32" r="2.5" fill="#14272b"/>
  </g>
  <g fill="#14272b" font-family="Arial, Helvetica, sans-serif">
    <text x="94" y="49" font-size="30" font-weight="700" letter-spacing="2">X-LABORATORY</text>
    <text x="96" y="70" font-size="10" letter-spacing="1.5">AI · SMART GRIDS · DATA-DRIVEN SYSTEMS</text>
  </g>
</svg>
